<?xml version="1.0" encoding="UTF-8"?>
<svg version="1.1" viewBox="0 0 1564 1440" width="391" height="360" xmlns="http://www.w3.org/2000/svg">
<path transform="translate(0)" d="m0 0h1564v1440h-1564z" fill="#FDFDFD"/>
<path transform="translate(729,107)" d="m0 0h71l34 3 33 5 26 5 32 8 35 11 36 14 20 9 21 10 22 12 20 12 27 18 14 10 18 14 28 24 8 8 8 7 12 12 7 8 12 13 9 11 13 16 13 18 10 14 10 16 9 15 14 25 16 33 11 27 11 31 9 31 7 30 5 27 5 40 2 31v48l-3 33-5 38-7 36-8 30-12 37-11 28-12 26-12 24-14 24-11 18-8 12-13 18-10 13-8 10-12 14-11 12-7 8-20 20-8 7-12 11-11 9-16 13-18 13-24 16-13 8-26 15-32 16-31 13-30 11-30 9-28 7-36 7-39 5-27 2h-51l-36-3-32-4-36-7-32-8-32-10-32-12-27-12-25-12-23-13-20-12-19-13-18-13-14-11-13-11-11-9-17-16-24-24-7-8-13-15-9-11-15-20-14-20-15-24-12-21-15-29-14-32-10-27-9-28-8-31-7-34-5-36-3-37v-52l2-30 4-32 5-29 8-34 10-34 12-33 12-28 12-25 9-16 6-11 12-20 8-12 12-17 9-12 11-14 12-14 11-13 11-11 2-3h2l2-4 15-14 13-12 11-9 13-11 19-14 14-10 19-12 20-12 18-10 15-8 33-15 26-10 33-11 30-8 27-6 29-5 32-4z" fill="#147E3A"/>
<path transform="translate(708,401)" d="m0 0 15 1 12 4 14 9 9 9 9 14 9 21 33 11 24 11 18 10 12 11 4 5-2 5-8 8-16 9-19 6-19 4-25 3h-15l-4 16-7 16-4 5-8 4 1 4 16 8 10 8 10 13 8 17 6 18 6 26 8 45 6 9 6 12 3 11 2 18 1 33 5 25 7 19 10 16 6 10 3 13 43 15 50 17 88 30 30 10 4-16 2-16v-21l7-6 7 1 15 8 24 16 19 14 13 11 11 9 16 15 19 19 9 12 3 7v6l-7 9h-14l-17-1-31-1h-97l-10-2-3-2h-66l-11 9-10 9-8 7-15 14-12 12-7 8-13 15-8 10-11 14-13 18-12 19-9 15-12 23-10 23-9 26-4 2h-67l1-5 30-45 12-17 14-19 14-18 14-17 13-15 14-15 12-13 4-2 1-3 8-7 15-14 28-22 15-11 1-2h-148l-35 1-10 3-79 34-29 14-23 11-16 8-23 12-28 17-16 10-30 20-16 11-3 2h-5l-10-7-15-10-5-4 2-4 27-18 28-17 34-18 30-14 37-15 47-17 45-14 6-2v-1h-14l-8 1-7-1-85 2-151 7-26 1-65 5h-10l-5-5-2-4 1-1 61-5 46-3 3-11 27-82 12-36 10-34 8-32 3-15 2-5v-4l-8-3-5 1-7 4-16 2h-9l-5-3-9-3-6-3-5-4-3-8-2-8-31-11-36-12-12-5-5-4-2-3 1-9 6-9 4-3h10l36 12 26 9 2 1-2-10-5-54-5-42v-7l4-8 14-10 19-12 25-14 19-10 25-12 25-10 17-5 20-3h55l1-1v-5l-47-17-24-10-6-4-2-2v-8l4-6 10-7 19-9 22-7 35-7 8-19 6-11 8-10 10-10 15-8z" fill="#FDFDFD"/>
<path transform="translate(738,882)" d="m0 0 11 3 29 10 4 10 4 5 7 4 9 2 5 3h22l6 1 5-1v-2l7 1 100 34 91 31 17 6-1 4-8 14-4 4h-30l-49-1h-179l-4-1-1-14-6-25-7-20-15-36-11-25-2-4z" fill="#147E3A"/>
<path transform="translate(576,556)" d="m0 0h40l-1 10-9 43-8 29-9 25-8 16-6 11-9 12-8 9-11 8-10 5-5 2-5-1 2-35-1-24 12-11 11-9 8-8 9-11 3-4-2-5-4-1-8 7-24 24-11 9-5 3-13 2-3-5-7-16-8-11-9-10-7-7-8-7v-3l16-8 19-10 31-15 24-9z" fill="#147E3A"/>
<path transform="translate(746,602)" d="m0 0 5 2 10 9 9 14 7 17 7 26 6 32 2 21-23 7-16 8-11 7-9 8h-4v-55l2-22 5-34 8-37z" fill="#147E3A"/>
<path transform="translate(633,558)" d="m0 0 3 1 14 30 9 15 8 10 7 5 3 1h14l14-5 17-9 2 1-10 25-8 26-3 10-13-1-37-7-24-6-3-2 1-26 5-66z" fill="#147E3A"/>
<path transform="translate(609,922)" d="m0 0 5 5 14 20 11 17 12 19 15 24 2 4-1 1-79 2h-20l2-6 9-19 16-36 13-30z" fill="#147E3A"/>
<path transform="translate(691,469)" d="m0 0h48l22 2 9 1 13 1 21 7 18 8 16 8 1 2h-8l-19-2-44-3-51-2h-86l-25 1h-23l3-3 15-6 24-6 25-4z" fill="#0F8A3E"/>
<path transform="translate(283,357)" d="m0 0 1 2-2 5h-2l-1 4-3 3-1 5-3-1-1 5-2 1-2 7h-3l-6 12-3 8h-2l-2 8h-2l-4 9-5 9-2 5-6 12-3 9h-2l-1 8-1 2h-2v6h-2l-1 5-2 5 1 2h-2l-1 7-2 4-4 12-2 9-2 3-3 13-2 6-2 10-1 3-2 10-1 3-2 15-3 10-1 13-3 10v18l-1 8-1 9-1 8-1 9 1 4-1 4 1 16v48l3 25 1 16 2 11v6 3l1 3-1 3 2 1 1 3v9l1 3 2 7 1 8 1 5 3 9 2 10 2 5 2 7 2 5 1 7 3 6 1 7 2 1 3 9 6 14 2 5 3 8 11 23 3 5v3h2l5 10 3 5v3h2v3h2l2 4v3h2v3h2v4h2v2h2v3h2l2 4v3h2l3 7 2 4 3 2 2 7h2l2 4 2 1 5 9 8 10 5 7 5 5 7 9 4 4 7 8 9 9v2l4 2v2h2l6 7 6 5 4 4v2h2v2l4 2 8 8-3 1-7-7-8-7-27-27-7-8-13-15-9-11-15-20-14-20-15-24-12-21-15-29-14-32-10-27-9-28-8-31-7-34-5-36-3-37v-52l2-30 4-32 5-29 8-34 10-34 12-33 12-28 12-25 9-16 6-11 12-20 8-12 5-7z" fill="#0C7535"/>
<path transform="translate(705,412)" d="m0 0h14l14 5 11 8 8 10 6 10 5 11v4h-85l-19 1 3-9 8-15 11-13 10-7 10-4z" fill="#147E3A"/>
<path transform="translate(730,769)" d="m0 0 3 2 4 13 8 15 14 19 11 15 8 16 3 12v2l-7-1-36-12-15-6-2-1-2-10v-23l2-20 4-15z" fill="#147E3A"/>
<path transform="translate(447,613)" d="m0 0h5l11 8 12 12 9 13 6 12 1 3v8l-3 7-4 5-4-1-9-9-11-7-11-5-12-3-10-1-2-2-2-14v-9l4-4 18-12z" fill="#147E3A"/>
<path transform="translate(791,734)" d="m0 0h9l6 12 4 17 1 12-22 2-18 5-13 7-5 2-7-14-2-7v-13l10-8 15-8 17-6z" fill="#147E3A"/>
<path transform="translate(502,672)" d="m0 0h14l2 5v22l-2 31-3 22-5 17-5 1-3-3-6-16-8-13-2-3v-40l12-11z" fill="#147F3A"/>
<path transform="translate(691,469)" d="m0 0h48l22 2 9 1h7l5 1v1h-19l-19-2h-58l-22 2-6 1 2 1h16l8 1 7 2h11l5 1 4 1 6 4 2 1-2 2 14 1h23v1l14 1v1h-27l-24-1h-86l-25 1h-23l3-3 15-6 24-6 25-4z" fill="#0F8A3E"/>
<path transform="translate(686,471)" d="m0 0h58l19 2h12l7 1v1l-9 1-1 1-8-1-6 2-5 6h-3v-2l-11 1h-5v2l2 1 1-3 9 2h6l1 3 2 1-5 1h-19l-27-1v-1l13-1-1-1-1-2-5-2-4-1-8-1-13-1-4-1-10-1h-11l-12-1v-1l24-3z" fill="#147E3A"/>
<path transform="translate(670,1022)" d="m0 0 11 1 4-1h14v3l-29 9-36 12-11 4h-3l2-5 6-2 7-5 7-1 5-3 4-4 2-1 16-2 1-2h-24l-134 5-56 3-45 2-59 4h-19v-1l36-3 39-3 52-2 59-3 66-3z" fill="#0F8B3F"/>
<path transform="translate(207,887)" d="m0 0h3l3 9v3l2 1 3 9 6 14 2 5 3 8 11 23 3 5v3h2l5 10 3 5v3h2v3h2l2 4v3h2v3h2v4h2v2h2v3h2l2 4v3h2l3 7 2 4 3 2 2 7h2l2 4 2 1 5 9 8 10 5 7 5 5 7 9 4 4 7 8 9 9v2l4 2v2h2l6 7 6 5 4 4v2h2v2l4 2 8 8-3 1-7-7-8-7-27-27-7-8-13-15-9-11-15-20-14-20-15-24-12-21-15-29-14-32-9-24z" fill="#0C7736"/>
<path transform="translate(464,1201)" d="m0 0 14 7 17 9 17 8 8 4 13 5 17 7 14 5 15 5 8 2 11 1 8 3 12 3 1 3 8 1 16 4 9 2 2 1 18 3v1l-8 1-8-2-8-1-5-1-9-2-14-2-35-10-23-8-28-11-33-15-23-12-14-8z" fill="#0C7736"/>
<path transform="translate(604,528)" d="m0 0 9 2 22 8 1 1v5l-2 2h-55l-20 3-17 5-3-1 14-5 22-4 19-1 2-1h-11l-2-1 1-3 9-3 2-4 8-1z" fill="#0F8A3E"/>
<path transform="translate(511,1220)" d="m0 0 8 2 30 12 9 3 15 6 10 3 26 8 11 3 17 4 8 2 10 2 9 3 2 2h-11l-8-3-13-2-16-4-18-5-11-3-30-10-13-5-7-3-28-14z" fill="#0F8B3F"/>
<path transform="translate(685,1022)" d="m0 0h14v3l-29 9-36 12-11 4h-3l2-5 6-2 7-5 7-1 5-3 4-4 2-1 16-2 1-2h5v-2z" fill="#0F8A3E"/>
<path transform="translate(969,1021)" d="m0 0h66l5 3 8 1h97l31 1 17 1h14l2-1-1 3-2 1h-13l-13-1-34-1h-98l-10-2-5-2-63-1-2-1z" fill="#0F8B3F"/>
<path transform="translate(774,970)" d="m0 0 2 3 5 20 1 14h4l-2-2v-5l2-2 4 1 3 5v3l208 1 40 1 5-4-2 4-2 2h-30l-49-1h-179l-4-1-1-14-5-21z" fill="#0F8B3F"/>
<path transform="translate(581 1e3)" d="m0 0 6 1 3 2-1 5h23l20-3 18-4h6l7 3-1 3 4 1 1-2v3l-79 2h-20l2-4v3l6-2-1-5z" fill="#0F8A3E"/>
<path transform="translate(756,444)" d="m0 0 2 1 5 11v4h-85l-19 1 2-4 2 2 3-1-1-4 3-3h9l6 4v2h66l-2-3 4-6 2-2z" fill="#0F8B3F"/>
<path transform="translate(629,1269)" d="m0 0 18 2 6 2 5 1 31 5 40 4 44 1 28-1 23-2 32-4 27-5 15-3 4 1-27 6-31 5-25 3-27 2h-51l-36-3-32-4-36-7-8-2z" fill="#0F8A3E"/>
<path transform="translate(284,1037)" d="m0 0 5 2 5 9 8 10 5 7 5 5 7 9 4 4 7 8 9 9v2l4 2v2h2l6 7 6 5 4 4v2h2v2l4 2 8 8-3 1-7-7-8-7-27-27-7-8-13-15-9-11-15-20z" fill="#0C7937"/>
<path transform="translate(1329,523)" d="m0 0h2l7 24 7 30 2 16v7l-2-4-1-7-1-4-3-8-1-10-3-6-1-10-4-6v-9l-4-8z" fill="#0C7636"/>
<path transform="translate(834,1184)" d="m0 0h2l-1 7-2 1-2 7h-2v5l-2 7h-2l-2 9-6 13-1 2h-3l1-9 8-20 10-21z" fill="#0C7635"/>
<path transform="translate(823,793)" d="m0 0 4 2 1 18 1 10h2l3 16 1 4 2 1 4 10v2h-3l-7-14-6-20-2-11z" fill="#0C7635"/>
<path transform="translate(808,757)" d="m0 0h1l2 12v6l-22 1 2-6 10-4 1-1h6z" fill="#0F8A3E"/>
<path transform="translate(766,848)" d="m0 0 5 1 1 3 5-1 2 1 2 11-7-1-15-5 3-1 2 1v-8z" fill="#0F8A3E"/>
<path transform="translate(774,454)" d="m0 0 1 2 2 1 3 2 6 1 1-1h8l14 5 8 6-3 1-10-2-28-9-2-3z" fill="#0F893E"/>
<path transform="translate(756,444)" d="m0 0 2 1 5 11v4h-10l-1-2-5-3 4-7 2-2z" fill="#0F893E"/>
<path transform="translate(283,357)" d="m0 0 1 2-2 5h-2l-1 4-3 3-1 5-3-1-1 5-2 1-2 7h-3l-2 4-4 1 8-14 8-12 5-7z" fill="#0D7836"/>
<path transform="translate(633,558)" d="m0 0 3 1 3 6-1 4-4 3v7h-1l-4 47h-1v-16l4-50z" fill="#0F8B3F"/>
<path transform="translate(1121,229)" d="m0 0 7 1 11 9 13 11 5 4v2l-3-1-7-4-9-7-1-4h-3v-2l-5-2-3-3-5-3z" fill="#0C7636"/>
<path transform="translate(746,579)" d="m0 0h8l1 5-4 5-5 1-6-3-1-4z" fill="#0F893E"/>
<path transform="translate(942,1044)" d="m0 0 2 1-7 8-4 2-18 18-4 6-10 11-1-3 10-12h2l2-4 20-20z" fill="#0D7F3A"/>
<path transform="translate(1189,287)" d="m0 0 4 1 9 10 6 7-1 3v-2l-5-2-11-11-2-5z" fill="#0C7736"/>
<path transform="translate(798,420)" d="m0 0 4 1 1 3-3 3-5-1 1 5 2 1-4-1-5-2-1-2 5-5z" fill="#0C7234"/>
<path transform="translate(1262,381)" d="m0 0 4 1 10 16 6 11-1 3-8-13-7-11z" fill="#0D7937"/>
<path transform="translate(284,1037)" d="m0 0 5 2 5 9 12 15-1 4-13-17-8-11z" fill="#0D7B38"/>
<path transform="translate(717,489)" d="m0 0h37v1l14 1v1h-27l-24-1z" fill="#0F8B3F"/>
<path transform="translate(685,1022)" d="m0 0h14v3l-16 5-2-1 7-4h-8l1-2z" fill="#0F8B3F"/>
<path transform="translate(1321,499)" d="m0 0h2l6 17v6h-2v-2h-2l-1-9-3-5-1-5z" fill="#0C7736"/>
<path transform="translate(633,558)" d="m0 0 3 1 3 6-1 4-6 2v-11z" fill="#0F893E"/>
<path transform="translate(283,357)" d="m0 0 1 2-2 5h-2l-1 4-3 3-1 5-3-1 1-7 6-8z" fill="#0C7535"/>
<path transform="translate(376,1138)" d="m0 0 5 2 5 5 13 11-3 1-14-12-6-5z" fill="#0D7B38"/>
<path transform="translate(1286,420)" d="m0 0 5 5 8 16 1 7-2-1-11-23z" fill="#0C7937"/>
<path transform="translate(353,273)" d="m0 0v3l-18 18-1 2h-2v2l-3 1 2-4 9-9 2-3h2l2-4z" fill="#0F7F3A"/>
<path transform="translate(1154,948)" d="m0 0 8 4 5 5 8 7v2l-4-1-13-12-4-3z" fill="#0D7A37"/>
<path transform="translate(713,611)" d="m0 0h2l2 3-1 5-7-1-1-2-3-1z" fill="#0F8A3E"/>
<path transform="translate(302,329)" d="m0 0 2 1-1 6h-3l-1 4h-3l-1 4-4 1 2-5z" fill="#0D7837"/>
<path transform="translate(814,110)" d="m0 0h12l7 1-4 3-4 2-4-1v-2l-7-1z" fill="#0C7234"/>
<path transform="translate(1143,243)" d="m0 0 8 6 6 5v2l-3-1-7-4-4-3-1-4z" fill="#0E7A37"/>
<path transform="translate(1309,468)" d="m0 0h2l6 15-1 4-1-3h-2l-3-10z" fill="#0D7836"/>
<path transform="translate(591,1254)" d="m0 0h7l8 3 12 3 1 2-12-2-15-4z" fill="#157E3A"/>
<path transform="translate(722,606)" d="m0 0 2 1-5 12-2-2-2-4v-3z" fill="#11833C"/>
<path transform="translate(533,691)" d="m0 0 2 1 1 6-3 8-2 1v-12z" fill="#0C7234"/>
<path transform="translate(598,484)" d="m0 0h2l-1 3-8 2v2h7v1h-15l3-3z" fill="#0F8B3F"/>
<path transform="translate(843,113)" d="m0 0h13l4 3-7 3-4-2v-2l-6-1z" fill="#0C7435"/>
<path transform="translate(464,1201)" d="m0 0 14 7 6 4v2l-6-2-14-8z" fill="#0D7B38"/>
<path transform="translate(207,887)" d="m0 0h3l3 9-1 7-2-3-3-8z" fill="#0D7937"/>
<path transform="translate(744,757)" d="m0 0 4 1 2-1 1 3-1 5-4 2-2 3z" fill="#0F8B3F"/>
<path transform="translate(912,1073)" d="m0 0h2l-2 5-11 12-1-3 10-12h2z" fill="#0D7C38"/>
<path transform="translate(866,116)" d="m0 0h7l12 3v1h-5l-1 2-5-1v-2l-8-1z" fill="#0C7736"/>
<path transform="translate(842,1170)" d="m0 0h1v5l-3 3-1 5h-4l1-5 3-6z" fill="#0D7736"/>
<path transform="translate(867,1128)" d="m0 0 4 2-2 1-3 5h-2l-2 7-3-1 2-5z" fill="#0D7837"/>
<path transform="translate(515,576)" d="m0 0h6l-4 2-4 3-8 3-4 1v-2z" fill="#0D7B38"/>
<path transform="translate(318,312)" d="m0 0h2l-1 4-5 4h-2l-2 4-1-4 6-7z" fill="#0D7836"/>
<path transform="translate(746,602)" d="m0 0 4 2 2 3-1 3-3 1-4-1 1-7z" fill="#0F8B3F"/>
<path transform="translate(567,697)" d="m0 0 1 3-10 11-3-1 6-7h2l2-4z" fill="#0C7836"/>
<path transform="translate(1221,323)" d="m0 0h3l7 9-1 3-8-7z" fill="#0C7736"/>
<path transform="translate(904,124)" d="m0 0 9 1 5 2-4 2h-4v-2l-3 1-4-3z" fill="#0C7736"/>
<path transform="translate(632,477)" d="m0 0h5l-1 2-5 2h-14v-1z" fill="#157E3A"/>
<path transform="translate(1301,452)" d="m0 0h3l5 11-1 4-4-6z" fill="#0D7837"/>
<path transform="translate(653,1272)" d="m0 0 14 1 5 1v1l-8 1-8-2h-3z" fill="#0C7234"/>
<path transform="translate(553,1114)" d="m0 0 3 1-9 6-7 4h-2v-2z" fill="#0D7C38"/>
<path transform="translate(1196,1097)" d="m0 0 1 3-11 11h-2l1-3h2l2-4z" fill="#0C7A37"/>
<path transform="translate(404,1161)" d="m0 0 4 2 11 8-3 1-12-9z" fill="#0D7B37"/>
<path transform="translate(597,1089)" d="m0 0 3 1-3 3-12 6-2-1 3-3z" fill="#0D7F39"/>
<path transform="translate(955,1032)" d="m0 0 2 1-12 12-2-2z" fill="#11853C"/>
<path transform="translate(290,347)" d="m0 0h1v5l-4 4h-4l2-5z" fill="#0C7635"/>
<path transform="translate(1325,512)" d="m0 0 3 1 1 9h-2v-2h-2l-1-7z" fill="#0C7435"/>
<path transform="translate(1273,397)" d="m0 0 3 1 6 11-1 3-8-13z" fill="#0C7736"/>
<path transform="translate(1247,356)" d="m0 0h2l6 9v3h-2l-4-6v-2h-2l-1-3z" fill="#0C7736"/>
<path transform="translate(1235,341)" d="m0 0h3l7 10-1 3-5-5z" fill="#0D7836"/>
<path transform="translate(743,1230)" d="m0 0 2 1-1 4-3 4h-3l2-7z" fill="#0C7736"/>
<path transform="translate(684,1024)" d="m0 0h5l-2 3-7 2-3-2v-2z" fill="#147E3A"/>
<path transform="translate(1255,369)" d="m0 0h3l5 8v3h-2l-3-4v-2l-2-1z" fill="#0D7836"/>
<path transform="translate(1139,936)" d="m0 0 5 2v2l5 2 2 4 2 1-4-1-10-8z" fill="#0D7A37"/>
<path transform="translate(757,488)" d="m0 0 17 2v1h-22l4-2z" fill="#157E3A"/>
<path transform="translate(777,855)" d="m0 0 1 4h2l1 4-7-1v-3h2z" fill="#13813B"/>
<path transform="translate(890,121)" d="m0 0h7l3 3-1 1h-6l-3-2z" fill="#0C7435"/>
<path transform="translate(533,1126)" d="m0 0 4 1-11 7h-3l4-4z" fill="#0D7C38"/>
<path transform="translate(1101,212)" d="m0 0 5 2 2 3-1 2 3 1-5-1-1-4-5-1z" fill="#0E7836"/>
<path transform="translate(388,1148)" d="m0 0 4 2 7 6-3 1-8-7z" fill="#0C7A37"/>
<path transform="translate(754,780)" d="m0 0 4 2-4 4h-4l2-4z" fill="#0F8B3F"/>
<path transform="translate(505,764)" d="m0 0 2 2v4l-6-1 1-4z" fill="#0C7836"/>
<path transform="translate(919,128)" d="m0 0 9 1 2 3-8-1z" fill="#0C7636"/>
</svg>
